<svg xmlns="http://www.w3.org/2000/svg" width="186" height="30.62" viewBox="0 0 186 30.62">
  <g id="Logo_Artwork" data-name="Logo Artwork" transform="translate(0 0.035)">
    <path id="Контур_1" data-name="Контур 1" d="M41.994,34.413h.783a2.35,2.35,0,0,1,1.472.337,1.5,1.5,0,0,1,.415,1.23,2.35,2.35,0,0,1-.11.783.885.885,0,0,1-.368.47,1.472,1.472,0,0,1-.58.211,4.754,4.754,0,0,1-.838.063,15.218,15.218,0,0,1-1.88-.07h0v-5.1c.556,0,1.136-.047,1.747-.047s1.073,0,1.747.047l-.094.869H41.994Zm0,2.248h.783a.94.94,0,0,0,.611-.141.862.862,0,0,0,.141-.587.9.9,0,0,0-.141-.6.885.885,0,0,0-.611-.141h-.783Z" transform="translate(-8.864 -7.007)" fill="#09355b"/>
    <path id="Контур_2" data-name="Контур 2" d="M51.165,32.35l-1.253,3.806a3.133,3.133,0,0,1-.5,1.018,1.143,1.143,0,0,1-.783.384,4.253,4.253,0,0,1-1.23-.117l.125-.783a3.626,3.626,0,0,0,.916,0c.133-.047.243-.188.337-.431l.063-.164h-.313a.65.65,0,0,1-.658-.509L46.81,32.42h1.159l.783,2.718a.117.117,0,0,0,.133.086h.188l.877-2.8Z" transform="translate(-10.147 -7.02)" fill="#09355b"/>
    <path id="Контур_3" data-name="Контур 3" d="M55.592,35.209h-.086L54.417,37.48H53.25l1.371-2.632-1.23-2.5H54.55l.987,2.123h.11l.987-2.123h1.12l-1.23,2.5,1.339,2.632H56.688Z" transform="translate(-11.543 -7.02)" fill="#09355b"/>
    <path id="Контур_4" data-name="Контур 4" d="M60.65,37.475V33.418a1.073,1.073,0,0,1,.3-.783,1.05,1.05,0,0,1,.783-.305A21.6,21.6,0,0,1,64,32.407l-.047.83h-1.77a.407.407,0,0,0-.305.094.439.439,0,0,0-.094.313v3.83Z" transform="translate(-13.147 -7.015)" fill="#09355b"/>
    <path id="Контур_5" data-name="Контур 5" d="M68.407,36.132H66.645l-.376,1.347H65.11l1.48-4.832a.392.392,0,0,1,.141-.211.423.423,0,0,1,.251-.086h1.073a.36.36,0,0,1,.392.3l1.48,4.832H68.775Zm-.251-.877-.431-1.566c-.055-.243-.094-.407-.1-.478h-.2l-.047.235a.716.716,0,0,1-.063.243l-.431,1.566Z" transform="translate(-14.114 -7.02)" fill="#09355b"/>
    <path id="Контур_6" data-name="Контур 6" d="M76.55,32.348v5.13H75.414V33.17h-.658a.415.415,0,0,0-.47.431c-.063.783-.125,1.347-.18,1.754a4.332,4.332,0,0,1-.258,1.034,1.48,1.48,0,0,1-1.7,1.112l-.078-.877a1.19,1.19,0,0,0,.462-.172.783.783,0,0,0,.274-.368,5.052,5.052,0,0,0,.227-.956c.055-.376.11-.932.172-1.66a1.073,1.073,0,0,1,1.206-1.12Z" transform="translate(-15.623 -7.018)" fill="#09355b"/>
    <path id="Контур_7" data-name="Контур 7" d="M83.577,33.274H82.011V37.48h-1.1V33.274H79.34V32.35h4.2Z" transform="translate(-17.199 -7.02)" fill="#09355b"/>
    <path id="Контур_8" data-name="Контур 8" d="M89.768,36.567l.039.83a23.424,23.424,0,0,1-2.35.078,1.136,1.136,0,0,1-.783-.282.963.963,0,0,1-.305-.783V33.277a.971.971,0,0,1,.305-.783,1.151,1.151,0,0,1,.783-.274,19.261,19.261,0,0,1,2.35.07l-.039.838H87.787a.345.345,0,0,0-.266.094.415.415,0,0,0-.078.29V34.3h2.044v.885H87.442v.987a.439.439,0,0,0,.078.3.376.376,0,0,0,.266.086Z" transform="translate(-18.722 -6.992)" fill="#09355b"/>
    <path id="Контур_9" data-name="Контур 9" d="M92.59,37.459v-5.13c.454-.039,1.112-.063,1.95-.063A2.24,2.24,0,0,1,96,32.619a1.7,1.7,0,0,1,.4,1.316,1.817,1.817,0,0,1-.36,1.331,1.966,1.966,0,0,1-1.339.352,7.754,7.754,0,0,1-1.01-.063v1.9Zm1.1-2.71h.783a.861.861,0,0,0,.6-.172,1.379,1.379,0,0,0,0-1.277.83.83,0,0,0-.6-.164h-.783Z" transform="translate(-20.071 -6.999)" fill="#09355b"/>
    <path id="Контур_10" data-name="Контур 10" d="M102.66,36.5l.1.838a5.545,5.545,0,0,1-1.645.2,2.052,2.052,0,0,1-1.668-.587,3.352,3.352,0,0,1-.454-2.06,3.336,3.336,0,0,1,.454-2.06,2.029,2.029,0,0,1,1.668-.6,6.156,6.156,0,0,1,1.566.172l-.1.846h-1.441a.783.783,0,0,0-.783.352,2.984,2.984,0,0,0-.2,1.324,2.945,2.945,0,0,0,.2,1.316.783.783,0,0,0,.783.352A14.457,14.457,0,0,0,102.66,36.5Z" transform="translate(-21.456 -6.993)" fill="#09355b"/>
    <path id="Контур_11" data-name="Контур 11" d="M106.7,34.253h.783a2.224,2.224,0,0,1,1.457.36,1.7,1.7,0,0,1,.407,1.3,1.684,1.684,0,0,1-.384,1.277,1.88,1.88,0,0,1-1.292.352,18.322,18.322,0,0,1-2.052-.063h0V32.35H106.7Zm0,2.412h.783a.783.783,0,0,0,.587-.157.987.987,0,0,0,.141-.634,1.057,1.057,0,0,0-.141-.65.736.736,0,0,0-.587-.172H106.7Z" transform="translate(-22.896 -7.02)" fill="#09355b"/>
    <path id="Контур_12" data-name="Контур 12" d="M114.363,34.794h0l.258.055a.783.783,0,0,1,.227.078l.188.11a.525.525,0,0,1,.172.157,1.456,1.456,0,0,0,.141.18,1.355,1.355,0,0,1,.133.251l.125.274a2.21,2.21,0,0,0,.125.352c.055.164.1.3.133.392l.149.462.11.352h-1.183a14.021,14.021,0,0,0-.564-1.66.963.963,0,0,0-.58-.564,1.183,1.183,0,0,0-.305,0h-.36a2.3,2.3,0,0,1,.055.486V37.48H112.06V32.35h1.128V33.8a3.336,3.336,0,0,1-.055.611h.345a.783.783,0,0,0,.783-.4,7.832,7.832,0,0,0,.58-1.566.487.487,0,0,1,0-.078h1.151c-.282.877-.454,1.394-.525,1.566a1.433,1.433,0,0,1-.658.783,2.029,2.029,0,0,1-.446.078Z" transform="translate(-24.292 -7.02)" fill="#09355b"/>
    <path id="Контур_13" data-name="Контур 13" d="M123.094,37.48h-1.081V34.426a3.469,3.469,0,0,1,.063-.689h-.055a3.36,3.36,0,0,1-.29.674L120,37.488h-1.12V32.35h1.081v3.015a4.972,4.972,0,0,1-.063.713h.047a4.982,4.982,0,0,1,.3-.674l1.731-3.055h1.12Z" transform="translate(-25.77 -7.02)" fill="#09355b"/>
    <path id="Контур_14" data-name="Контур 14" d="M130.589,37.06h-1.081V34a4.174,4.174,0,0,1,.063-.689h-.047a4.6,4.6,0,0,1-.313.689l-1.731,3.078h-1.12V31.929h1.073v3.015a4.88,4.88,0,0,1-.055.713h0a4.98,4.98,0,0,1,.3-.674l1.731-3.055h1.12Zm-1.566-6.65h.728a.932.932,0,0,1-.274.783,1.237,1.237,0,0,1-.932.337,1.277,1.277,0,0,1-.948-.337.94.94,0,0,1-.282-.783h.728c0,.407.149.611.5.611s.486-.2.462-.611Z" transform="translate(-27.392 -6.6)" fill="#09355b"/>
    <path id="Контур_15" data-name="Контур 15" d="M139.321,36.132h-1.754l-.376,1.347H136l1.48-4.832a.392.392,0,0,1,.141-.211.423.423,0,0,1,.251-.086h1.073a.36.36,0,0,1,.392.3l1.48,4.832h-1.151Zm-.251-.877-.431-1.566c-.055-.243-.094-.407-.1-.478h-.188a1,1,0,0,1-.047.235.716.716,0,0,1-.063.243l-.431,1.566Z" transform="translate(-29.482 -7.02)" fill="#09355b"/>
    <path id="Контур_16" data-name="Контур 16" d="M147.271,32.35l-1.253,3.806a3.133,3.133,0,0,1-.509,1.018,1.128,1.128,0,0,1-.783.384,4.331,4.331,0,0,1-1.238-.117l.125-.783a3.579,3.579,0,0,0,.916,0,.674.674,0,0,0,.345-.431l.055-.164h-.274a.65.65,0,0,1-.658-.509L142.94,32.42H144.1l.783,2.718a.125.125,0,0,0,.133.086h.188l.916-2.874Z" transform="translate(-30.986 -7.02)" fill="#09355b"/>
    <path id="Контур_17" data-name="Контур 17" d="M153.6,33.274h-1.566V37.48H150.9V33.274H149.33V32.35h4.2Z" transform="translate(-32.371 -7.02)" fill="#09355b"/>
    <path id="Контур_18" data-name="Контур 18" d="M159.783,36.5l.094.838a5.483,5.483,0,0,1-1.637.2,2.068,2.068,0,0,1-1.676-.587,3.36,3.36,0,0,1-.478-2.06,3.344,3.344,0,0,1,.478-2.06,2.044,2.044,0,0,1,1.676-.6,6.094,6.094,0,0,1,1.566.172l-.094.846h-1.441a.783.783,0,0,0-.783.352,2.874,2.874,0,0,0-.2,1.324,2.835,2.835,0,0,0,.2,1.316.783.783,0,0,0,.783.352,14.56,14.56,0,0,0,1.512-.1Z" transform="translate(-33.833 -6.993)" fill="#09355b"/>
    <path id="Контур_19" data-name="Контур 19" d="M162.783,32.842a2.859,2.859,0,0,1,3.431,0,3.321,3.321,0,0,1,.486,2.091,3.352,3.352,0,0,1-.486,2.091,2.89,2.89,0,0,1-3.431,0,3.36,3.36,0,0,1-.478-2.091,3.329,3.329,0,0,1,.478-2.091Zm2.506.7a1.05,1.05,0,0,0-1.566,0,3.078,3.078,0,0,0-.211,1.386,3.063,3.063,0,0,0,.211,1.378,1.034,1.034,0,0,0,1.566,0,3.062,3.062,0,0,0,.211-1.378,3.078,3.078,0,0,0-.211-1.418Z" transform="translate(-35.18 -7.003)" fill="#09355b"/>
    <path id="Контур_20" data-name="Контур 20" d="M169.79,37.459v-5.13c.454-.039,1.112-.063,1.95-.063a2.24,2.24,0,0,1,1.465.352,1.7,1.7,0,0,1,.4,1.316,1.817,1.817,0,0,1-.376,1.331,1.966,1.966,0,0,1-1.339.352,7.755,7.755,0,0,1-.963-.063v1.9Zm1.136-2.71h.783a.862.862,0,0,0,.6-.172,1.379,1.379,0,0,0,0-1.277.83.83,0,0,0-.6-.164h-.783Z" transform="translate(-36.806 -6.999)" fill="#09355b"/>
    <path id="Контур_21" data-name="Контур 21" d="M179.853,36.5l.1.838a5.545,5.545,0,0,1-1.645.2,2.052,2.052,0,0,1-1.668-.587,3.352,3.352,0,0,1-.486-2.06,3.337,3.337,0,0,1,.486-2.06,2.029,2.029,0,0,1,1.668-.6,6.2,6.2,0,0,1,1.566.172l-.1.846h-1.441a.783.783,0,0,0-.783.352,2.874,2.874,0,0,0-.2,1.324,2.835,2.835,0,0,0,.2,1.316.783.783,0,0,0,.783.352A14.458,14.458,0,0,0,179.853,36.5Z" transform="translate(-38.183 -6.993)" fill="#09355b"/>
    <path id="Контур_22" data-name="Контур 22" d="M186.926,37.48h-1.081V34.426a4.174,4.174,0,0,1,.063-.689h-.047a4.6,4.6,0,0,1-.29.674l-1.731,3.078h-1.12V32.35h1.073v3.015a4.056,4.056,0,0,1-.063.713h.047a4.982,4.982,0,0,1,.3-.674l1.731-3.055h1.12Z" transform="translate(-39.609 -7.02)" fill="#09355b"/>
    <path id="Контур_23" data-name="Контур 23" d="M194.3,32.35v5.13h-1.112V35.209h-1.809V37.48H190.25V32.35h1.128v1.966h1.809V32.35Z" transform="translate(-41.242 -7.02)" fill="#09355b"/>
    <path id="Контур_24" data-name="Контур 24" d="M197.51,37.475V33.418a1.042,1.042,0,0,1,1.081-1.089,21.6,21.6,0,0,1,2.271.078l-.047.83h-1.762a.431.431,0,0,0-.313.094.439.439,0,0,0-.086.313v3.83Z" transform="translate(-42.815 -7.015)" fill="#09355b"/>
    <path id="Контур_25" data-name="Контур 25" d="M1.684,3.916H0V0H11.748c1.316,0,1.888.572,1.888,1.888V5.483H9.516V4.449a.525.525,0,0,0-.572-.533H6.3V7.159H8.4c2.945,0,6.979.783,6.979,5.483,0,4.347-3.36,5.819-7.049,5.819H3.564c-1.316,0-1.88-.572-1.88-1.888ZM6.877,14.74H8.788A1.778,1.778,0,0,0,10.628,12.8,1.715,1.715,0,0,0,8.819,10.91H6.3v3.258a.525.525,0,0,0,.572.572Z" transform="translate(0 -0.008)" fill="#09355b"/>
    <path id="Контур_26" data-name="Контур 26" d="M23.558,13.848a2.585,2.585,0,0,0,1.707.783,1.277,1.277,0,0,0,1.394-.979L21.725,4.441c-.235-.415-.368-.572-.783-.572H20.3V-.007h3.133c1.331,0,1.7.462,2.17,1.5l2.561,5.639c.439.979.822,2.146.822,2.146h.055s.305-1.089.7-2.146l2.013-5.639a1.9,1.9,0,0,1,2.177-1.5h2.945V3.909h-.65c-.407,0-.517.133-.7.572L31.132,14.874c-.783,1.786-2.068,3.916-5.146,3.916a6.939,6.939,0,0,1-4.441-1.566Z" transform="translate(-4.401 0)" fill="#09355b"/>
    <path id="Контур_27" data-name="Контур 27" d="M47.452,9.3,44.429,4.441c-.345-.533-.376-.533-.94-.533h-.956V-.008h2.992A2.091,2.091,0,0,1,47.781,1.23l1.316,2.4c.642,1.167,1.136,2.35,1.136,2.35h.055s.493-1.167,1.136-2.35l1.347-2.4A2.107,2.107,0,0,1,55.018-.008h3V3.909h-.956c-.572,0-.6.055-.932.572L53.076,9.336l5.616,9.14H53.546l-2.123-3.72c-.642-1.167-1.136-2.232-1.136-2.232h-.055S49.739,13.6,49.1,14.772l-2.123,3.7H41.86Z" transform="translate(-9.074)" fill="#09355b"/>
    <path id="Контур_28" data-name="Контур 28" d="M65.854,3.916H64.17V0H75.785c1.316,0,1.888.572,1.888,1.888V5.483h-4.12V4.449a.517.517,0,0,0-.564-.533H70.483V18.484H65.854Z" transform="translate(-13.911 -0.008)" fill="#09355b"/>
    <path id="Контур_29" data-name="Контур 29" d="M79.89,14.607h.486c.415,0,.548-.133.7-.572L86.117,0h4.825l5.044,14.035c.149.439.282.572.7.572h.493v3.916H94.2a1.872,1.872,0,0,1-2.17-1.5l-.783-2.35H85.835l-.783,2.35a1.872,1.872,0,0,1-2.17,1.5H79.89Zm10.339-3.752L89.3,7.785c-.36-1.167-.783-3.055-.783-3.055h-.047s-.392,1.888-.783,3.055l-.932,3.07Z" transform="translate(-17.318 -0.008)" fill="#09355b"/>
    <path id="Контур_30" data-name="Контур 30" d="M102.63,14.584c2.2-.29,3.7-1.888,3.7-8.506V3.916h-1.707V0h12.336c1.316,0,1.888.572,1.888,1.888V14.035a.517.517,0,0,0,.564.572h1.112v3.916H116.1c-1.324,0-1.888-.572-1.888-1.888V4.449a.525.525,0,0,0-.572-.572H110.7V6.125c0,9.023-2.874,12.571-8.067,12.571Z" transform="translate(-22.248 -0.008)" fill="#09355b"/>
    <path id="Контур_31" data-name="Контур 31" d="M132.538,3.916h-1.5a.517.517,0,0,0-.572.572v.995h-4.01v-3.7c0-1.324.47-1.786,1.786-1.786h13.213c1.316,0,1.786.462,1.786,1.786v3.7h-4.01V4.449a.517.517,0,0,0-.6-.533h-1.5V18.484h-4.629Z" transform="translate(-27.414 -0.008)" fill="#09355b"/>
    <path id="Контур_32" data-name="Контур 32" d="M150.715,3.916H149V0h11.67c1.316,0,1.888.572,1.888,1.888V5.483H158.4V4.449a.517.517,0,0,0-.548-.533h-2.506V7.237h5.271v3.877h-5.271v2.921a.517.517,0,0,0,.564.572h2.561a.517.517,0,0,0,.572-.572v-1h4.135V16.6c0,1.316-.572,1.888-1.888,1.888H152.6c-1.324,0-1.888-.572-1.888-1.888Z" transform="translate(-32.3 -0.008)" fill="#09355b"/>
    <path id="Контур_33" data-name="Контур 33" d="M170.534,3.916H168.85V0h8.976c3.611,0,6.023,2.639,6.023,6.36s-2.436,6.415-6.023,6.415h-2.663v5.71h-4.629Zm6.36,5.013c1.5,0,2.224-1.057,2.224-2.53s-.7-2.483-2.123-2.483h-1.809V8.929Z" transform="translate(-36.603 -0.008)" fill="#09355b"/>
    <path id="Контур_34" data-name="Контур 34" d="M199.221,10.916a.517.517,0,0,0-.572-.564h-.979V6.6h4.175c1.316,0,1.888.572,1.888,1.888V15.6a.517.517,0,0,0,.564.572h.987v3.744h-4.135c-1.324,0-1.888-.572-1.888-1.888Z" transform="translate(-42.85 -1.438)" fill="#09355b"/>
    <rect id="Прямоугольник_1" data-name="Прямоугольник 1" width="3.752" height="3.618" transform="translate(156.707 -0.008)" fill="#5479fb"/>
    <path id="Контур_35" data-name="Контур 35" d="M217.2,14.607h.282a1.284,1.284,0,0,0,1.269-.6L219.945,12a2.569,2.569,0,0,1,1.394-1.112v-.055a5.342,5.342,0,0,1-3.391-4.911C217.948,2.2,220.72,0,224.464,0h8.615V3.916H231.4V18.484h-4.629V12.461h-.54c-.956,0-1.347.133-1.786.932l-2.146,3.72a2.489,2.489,0,0,1-2.608,1.371H217.18Zm9.587-5.992v-4.7h-1.676a2.209,2.209,0,0,0-2.428,2.35,2.279,2.279,0,0,0,2.506,2.35Z" transform="translate(-47.079 -0.008)" fill="#09355b"/>
  </g>
</svg>
