<svg xmlns="http://www.w3.org/2000/svg" width="57.254" height="60.67" viewBox="0 0 57.254 60.67">
  <g id="experience" transform="translate(-14.416)">
    <path id="Контур_45" data-name="Контур 45" d="M147.447,57.616l-1.026.372a4.833,4.833,0,0,0-3.083,3.616l-.348,1.824a3.077,3.077,0,0,0,3.022,3.657h8.894a3.078,3.078,0,0,0,3.03-3.619l-.325-1.815a4.823,4.823,0,0,0-3.094-3.674l-1.088-.394v-1.6a.884.884,0,0,0-.011-.132,4.361,4.361,0,0,0,1.248-3.037V50.422a4.229,4.229,0,0,0-8.458,0v2.463a4.218,4.218,0,0,0,1.246,2.985.884.884,0,0,0-.007.11Zm8.414,4.348.325,1.815a1.3,1.3,0,0,1-1.281,1.528h-8.894a1.3,1.3,0,0,1-1.276-1.545l.348-1.824a3.047,3.047,0,0,1,1.943-2.279l.672-.244c.017.017.034.035.052.051a4.1,4.1,0,0,0,5.374,0,.876.876,0,0,0,.077-.077l.709.257A3.039,3.039,0,0,1,155.861,61.964Zm-7.875-11.542a2.45,2.45,0,0,1,4.823-.61c-.114.056-.231.109-.351.157a2.955,2.955,0,0,1-2.228.2.889.889,0,1,0-1.021,1.455,2.943,2.943,0,0,0,1.7.457,5.914,5.914,0,0,0,1.984-.378V52.81a2.574,2.574,0,0,1-.771,1.825,2.484,2.484,0,0,1-.766.514l-.058.024a2.294,2.294,0,0,1-.906.162,2.463,2.463,0,0,1-2.4-2.451Zm2.369,6.691h.081a4.123,4.123,0,0,0,1.216-.183v1.422a2.321,2.321,0,0,1-2.427,0V56.933A4.172,4.172,0,0,0,150.355,57.113Z" transform="translate(-113.289 -40.719)" fill="#fff"/>
    <path id="Контур_46" data-name="Контур 46" d="M81.653,337.681H109.33a.889.889,0,0,0,0-1.777H81.653a.889.889,0,0,0,0,1.777Z" transform="translate(-58.486 -296.101)" fill="#fff"/>
    <path id="Контур_47" data-name="Контур 47" d="M81.653,378.122H109.33a.889.889,0,1,0,0-1.777H81.653a.889.889,0,1,0,0,1.777Z" transform="translate(-58.486 -331.75)" fill="#fff"/>
    <path id="Контур_48" data-name="Контур 48" d="M81.653,418.561H109.33a.889.889,0,1,0,0-1.777H81.653a.889.889,0,1,0,0,1.777Z" transform="translate(-58.486 -367.397)" fill="#fff"/>
    <path id="Контур_49" data-name="Контур 49" d="M81.653,459H109.33a.889.889,0,0,0,0-1.777H81.653a.889.889,0,0,0,0,1.777Z" transform="translate(-58.486 -403.046)" fill="#fff"/>
    <path id="Контур_50" data-name="Контур 50" d="M80.764,255.913a.889.889,0,0,0,.889.889H109.33a.889.889,0,0,0,0-1.777H81.653a.889.889,0,0,0-.889.889Z" transform="translate(-58.486 -224.805)" fill="#fff"/>
    <path id="Контур_51" data-name="Контур 51" d="M81.653,297.241H109.33a.889.889,0,0,0,0-1.777H81.653a.889.889,0,0,0,0,1.777Z" transform="translate(-58.486 -260.453)" fill="#fff"/>
    <path id="Контур_52" data-name="Контур 52" d="M53.933,337.66a.892.892,0,1,0-.892-.892A.892.892,0,0,0,53.933,337.66Z" transform="translate(-34.048 -296.076)" fill="#fff"/>
    <path id="Контур_53" data-name="Контур 53" d="M53.933,256.78a.892.892,0,1,0-.892-.892A.892.892,0,0,0,53.933,256.78Z" transform="translate(-34.048 -224.78)" fill="#fff"/>
    <path id="Контур_54" data-name="Контур 54" d="M53.933,297.22a.892.892,0,1,0-.892-.892A.892.892,0,0,0,53.933,297.22Z" transform="translate(-34.048 -260.428)" fill="#fff"/>
    <path id="Контур_55" data-name="Контур 55" d="M53.933,378.1a.892.892,0,1,0-.892-.892A.892.892,0,0,0,53.933,378.1Z" transform="translate(-34.048 -331.724)" fill="#fff"/>
    <path id="Контур_56" data-name="Контур 56" d="M53.933,418.541a.892.892,0,1,0-.892-.892A.892.892,0,0,0,53.933,418.541Z" transform="translate(-34.048 -367.373)" fill="#fff"/>
    <path id="Контур_57" data-name="Контур 57" d="M53.933,458.981a.892.892,0,1,0-.892-.892A.892.892,0,0,0,53.933,458.981Z" transform="translate(-34.048 -403.021)" fill="#fff"/>
    <path id="Контур_58" data-name="Контур 58" d="M70.253,14a6.145,6.145,0,0,1-.861-1.278,6.477,6.477,0,0,1-.32-1.587,4.956,4.956,0,0,0-1.1-3.057,4.958,4.958,0,0,0-3.057-1.1,6.479,6.479,0,0,1-1.587-.32,6.139,6.139,0,0,1-1.278-.861A6.694,6.694,0,0,0,59.923,4.51V4.241A4.246,4.246,0,0,0,55.681,0H18.658a4.247,4.247,0,0,0-4.242,4.242v3.43a.889.889,0,1,0,1.777,0V4.242a2.467,2.467,0,0,1,2.464-2.464H55.681a2.467,2.467,0,0,1,2.464,2.464v.269a6.7,6.7,0,0,0-2.123,1.281,6.146,6.146,0,0,1-1.278.861,6.49,6.49,0,0,1-1.587.32,4.957,4.957,0,0,0-3.057,1.1A4.956,4.956,0,0,0,49,11.133a6.479,6.479,0,0,1-.32,1.587A6.139,6.139,0,0,1,47.816,14,4.987,4.987,0,0,0,46.4,17.009a4.987,4.987,0,0,0,1.417,3.012,6.144,6.144,0,0,1,.861,1.278A6.477,6.477,0,0,1,49,22.885a4.956,4.956,0,0,0,1.1,3.057,4.957,4.957,0,0,0,3.057,1.1c.312.039.614.076.893.128V40.607a1.365,1.365,0,0,0,2.206,1.074L58.146,40.2V56.429a2.467,2.467,0,0,1-2.464,2.464H18.658a2.467,2.467,0,0,1-2.464-2.464V11.586a.889.889,0,1,0-1.777,0V56.429a4.247,4.247,0,0,0,4.242,4.242H55.681a4.247,4.247,0,0,0,4.242-4.242V40.2l1.889,1.479a1.365,1.365,0,0,0,2.207-1.074V30.689a.889.889,0,1,0-1.777,0V39.76l-2.362-1.85a1.366,1.366,0,0,0-1.687,0l-2.365,1.852V28.073l.195.153a4.988,4.988,0,0,0,3.012,1.416,4.989,4.989,0,0,0,3.012-1.416,6.147,6.147,0,0,1,1.278-.861,6.49,6.49,0,0,1,1.587-.32,4.958,4.958,0,0,0,3.057-1.1,4.958,4.958,0,0,0,1.1-3.057,6.483,6.483,0,0,1,.32-1.587,6.139,6.139,0,0,1,.861-1.278,4.987,4.987,0,0,0,1.417-3.012A4.987,4.987,0,0,0,70.253,14Zm-1.395,4.922a7.446,7.446,0,0,0-1.109,1.7,7.816,7.816,0,0,0-.442,2.05,3.677,3.677,0,0,1-.6,2.018,3.678,3.678,0,0,1-2.018.6,7.819,7.819,0,0,0-2.05.442,7.445,7.445,0,0,0-1.7,1.108,3.667,3.667,0,0,1-1.91,1.034,3.666,3.666,0,0,1-1.91-1.034,7.449,7.449,0,0,0-1.7-1.108c-.043-.018-.192-.074-.224-.084a8.841,8.841,0,0,0-1.826-.358,3.678,3.678,0,0,1-2.018-.6,3.677,3.677,0,0,1-.6-2.018,7.817,7.817,0,0,0-.442-2.05,7.449,7.449,0,0,0-1.109-1.7,3.666,3.666,0,0,1-1.034-1.91,3.665,3.665,0,0,1,1.034-1.91,7.445,7.445,0,0,0,1.109-1.7,7.811,7.811,0,0,0,.442-2.05,3.677,3.677,0,0,1,.6-2.018,3.678,3.678,0,0,1,2.018-.6,7.819,7.819,0,0,0,2.05-.442,7.445,7.445,0,0,0,1.7-1.108,3.677,3.677,0,0,1,1.907-1.033h.007a3.677,3.677,0,0,1,1.907,1.033,7.449,7.449,0,0,0,1.7,1.108,7.814,7.814,0,0,0,2.05.442,3.677,3.677,0,0,1,2.018.6,3.676,3.676,0,0,1,.6,2.018,7.817,7.817,0,0,0,.442,2.05,7.45,7.45,0,0,0,1.109,1.7,3.666,3.666,0,0,1,1.034,1.91,3.665,3.665,0,0,1-1.034,1.91Z" fill="#fff"/>
    <path id="Контур_59" data-name="Контур 59" d="M348.139,90.206l-3.024-.856-1.749-2.612a1.123,1.123,0,0,0-1.866,0l-1.749,2.612-3.025.856a1.123,1.123,0,0,0-.576,1.774l1.944,2.47-.121,3.14a1.122,1.122,0,0,0,1.509,1.1l2.95-1.085,2.95,1.085a1.122,1.122,0,0,0,1.509-1.1l-.121-3.14,1.944-2.47a1.123,1.123,0,0,0-.576-1.774Zm-2.913,3.335a1.125,1.125,0,0,0-.239.737l.092,2.4-2.258-.831a1.124,1.124,0,0,0-.775,0l-2.258.831.092-2.4a1.126,1.126,0,0,0-.24-.737l-1.488-1.89L340.468,91a1.124,1.124,0,0,0,.627-.456l1.338-2,1.338,2A1.125,1.125,0,0,0,344.4,91l2.315.655Z" transform="translate(-283.398 -76.022)" fill="#fff"/>
  </g>
</svg>
