<svg xmlns="http://www.w3.org/2000/svg" width="62" height="62" viewBox="0 0 62 62">
  <g id="increase" transform="translate(-1 -1)">
    <path id="Контур_60" data-name="Контур 60" d="M44.293,28.293,32.586,40H28V38h-.026A10.005,10.005,0,0,0,31.8,32H32a4,4,0,0,0,4-4,3.962,3.962,0,0,0-1-2.618V22A13,13,0,0,0,9,22v3.382A3.962,3.962,0,0,0,8,28a4,4,0,0,0,4,4h.2a10.005,10.005,0,0,0,3.824,6H16v2H11A10.011,10.011,0,0,0,1,50V62a1,1,0,0,0,1,1H42a1,1,0,0,0,1-1V50a10.013,10.013,0,0,0-7.83-9.756L45.414,30H63V28H45A1,1,0,0,0,44.293,28.293ZM16.531,42l3.892,4.67-3.839,1.919L14.387,42ZM21.82,53h.361l1.6,8H20.22Zm.562-2h-.764l-1.076-2.153L22,48.118l1.458.729Zm1.195-4.33L27.469,42h2.144l-2.2,6.59ZM32,30V26a2,2,0,0,1,0,4ZM10,28a2,2,0,0,1,2-2v4A2,2,0,0,1,10,28Zm2-4a3.939,3.939,0,0,0-1,.142V22a11,11,0,1,1,22,0v2.142A3.939,3.939,0,0,0,32,24a1,1,0,0,0-1-1,5.023,5.023,0,0,1-4-2l-1.2-1.6a1.038,1.038,0,0,0-1.6,0L23,21a5.025,5.025,0,0,1-4,2H13a1,1,0,0,0-1,1Zm2,6V25h5a7.035,7.035,0,0,0,5.6-2.8l.4-.534.4.533A7.037,7.037,0,0,0,30,24.927V30a8,8,0,1,1-16,0Zm8,10a9.929,9.929,0,0,0,4-.841v1.479l-4,4.8-4-4.8V39.159A9.929,9.929,0,0,0,22,40ZM3,50a8.009,8.009,0,0,1,8-8h1.28l2.772,8.316a1,1,0,0,0,.565.607A.981.981,0,0,0,16,51a1,1,0,0,0,.447-.1l2.305-1.153,1.2,2.4L18.18,61H9V55H7v6H3Zm38,0V61H37V55H35v6H25.82l-1.772-8.859,1.2-2.4L27.552,50.9A1.009,1.009,0,0,0,28,51a1,1,0,0,0,.948-.683L31.72,42H33A8.009,8.009,0,0,1,41,50Z" fill="#fff"/>
    <path id="Контур_61" data-name="Контур 61" d="M61,24V10a1,1,0,0,0-1-1H56a1,1,0,0,0-1,1V24H53V16a1,1,0,0,0-1-1H48a1,1,0,0,0-1,1v8H45V19a1,1,0,0,0-1-1H40a1,1,0,0,0-1,1v5H37v2H63V24ZM57,11h2V24H57Zm-8,6h2v7H49Zm-8,3h2v4H41Z" fill="#fff"/>
    <path id="Контур_62" data-name="Контур 62" d="M46.414,7H52a1,1,0,0,0,.707-.293L55,4.414V7h2V2a1,1,0,0,0-1-1H51V3h2.586l-2,2H46a1,1,0,0,0-.707.293l-6,6,1.414,1.414Z" fill="#fff"/>
  </g>
</svg>
