<svg xmlns="http://www.w3.org/2000/svg" width="57.254" height="60.67" viewBox="0 0 57.254 60.67">
  <path id="Контур_58" data-name="Контур 58" d="M70.253,14a6.145,6.145,0,0,1-.861-1.278,6.477,6.477,0,0,1-.32-1.587,4.956,4.956,0,0,0-1.1-3.057,4.958,4.958,0,0,0-3.057-1.1,6.479,6.479,0,0,1-1.587-.32,6.139,6.139,0,0,1-1.278-.861A6.694,6.694,0,0,0,59.923,4.51V4.241A4.246,4.246,0,0,0,55.681,0H18.658a4.247,4.247,0,0,0-4.242,4.242v3.43a.889.889,0,1,0,1.777,0V4.242a2.467,2.467,0,0,1,2.464-2.464H55.681a2.467,2.467,0,0,1,2.464,2.464v.269a6.7,6.7,0,0,0-2.123,1.281,6.146,6.146,0,0,1-1.278.861,6.49,6.49,0,0,1-1.587.32,4.957,4.957,0,0,0-3.057,1.1A4.956,4.956,0,0,0,49,11.133a6.479,6.479,0,0,1-.32,1.587A6.139,6.139,0,0,1,47.816,14,4.987,4.987,0,0,0,46.4,17.009a4.987,4.987,0,0,0,1.417,3.012,6.144,6.144,0,0,1,.861,1.278A6.477,6.477,0,0,1,49,22.885a4.956,4.956,0,0,0,1.1,3.057,4.957,4.957,0,0,0,3.057,1.1c.312.039.614.076.893.128V40.607a1.365,1.365,0,0,0,2.206,1.074L58.146,40.2V56.429a2.467,2.467,0,0,1-2.464,2.464H18.658a2.467,2.467,0,0,1-2.464-2.464V11.586a.889.889,0,1,0-1.777,0V56.429a4.247,4.247,0,0,0,4.242,4.242H55.681a4.247,4.247,0,0,0,4.242-4.242V40.2l1.889,1.479a1.365,1.365,0,0,0,2.207-1.074V30.689a.889.889,0,1,0-1.777,0V39.76l-2.362-1.85a1.366,1.366,0,0,0-1.687,0l-2.365,1.852V28.073l.195.153a4.988,4.988,0,0,0,3.012,1.416,4.989,4.989,0,0,0,3.012-1.416,6.147,6.147,0,0,1,1.278-.861,6.49,6.49,0,0,1,1.587-.32,4.958,4.958,0,0,0,3.057-1.1,4.958,4.958,0,0,0,1.1-3.057,6.483,6.483,0,0,1,.32-1.587,6.139,6.139,0,0,1,.861-1.278,4.987,4.987,0,0,0,1.417-3.012A4.987,4.987,0,0,0,70.253,14Zm-1.395,4.922a7.446,7.446,0,0,0-1.109,1.7,7.816,7.816,0,0,0-.442,2.05,3.677,3.677,0,0,1-.6,2.018,3.678,3.678,0,0,1-2.018.6,7.819,7.819,0,0,0-2.05.442,7.445,7.445,0,0,0-1.7,1.108,3.667,3.667,0,0,1-1.91,1.034,3.666,3.666,0,0,1-1.91-1.034,7.449,7.449,0,0,0-1.7-1.108c-.043-.018-.192-.074-.224-.084a8.841,8.841,0,0,0-1.826-.358,3.678,3.678,0,0,1-2.018-.6,3.677,3.677,0,0,1-.6-2.018,7.817,7.817,0,0,0-.442-2.05,7.449,7.449,0,0,0-1.109-1.7,3.666,3.666,0,0,1-1.034-1.91,3.665,3.665,0,0,1,1.034-1.91,7.445,7.445,0,0,0,1.109-1.7,7.811,7.811,0,0,0,.442-2.05,3.677,3.677,0,0,1,.6-2.018,3.678,3.678,0,0,1,2.018-.6,7.819,7.819,0,0,0,2.05-.442,7.445,7.445,0,0,0,1.7-1.108,3.677,3.677,0,0,1,1.907-1.033h.007a3.677,3.677,0,0,1,1.907,1.033,7.449,7.449,0,0,0,1.7,1.108,7.814,7.814,0,0,0,2.05.442,3.677,3.677,0,0,1,2.018.6,3.676,3.676,0,0,1,.6,2.018,7.817,7.817,0,0,0,.442,2.05,7.45,7.45,0,0,0,1.109,1.7,3.666,3.666,0,0,1,1.034,1.91,3.665,3.665,0,0,1-1.034,1.91Z" transform="translate(-14.416 0)" fill="#fff"/>
</svg>
