<svg xmlns="http://www.w3.org/2000/svg" width="99.544" height="81.885" viewBox="0 0 99.544 81.885">
  <g id="Сгруппировать_69" data-name="Сгруппировать 69" transform="translate(-633.228 -1755.058)">
    <path id="Контур_42" data-name="Контур 42" d="M7.921,42.308c2.055.4,4,.7,5.89,1.187a1.826,1.826,0,0,1,.883,1.522C14.937,53.54,21.5,59.2,29.32,59.811A15.22,15.22,0,0,0,45.165,47.072,2.527,2.527,0,0,0,44.252,45a52.1,52.1,0,0,0-6.834-3.425,3.44,3.44,0,0,0-4.733,2.5,3.622,3.622,0,0,0,3.2,4.246,8.2,8.2,0,0,1,1.294.076,7.093,7.093,0,0,1-6.423,4.566,7.5,7.5,0,0,1-7.519-3.79c-1.918-3.318-1.37-6.575,1.1-9.787-3.044-.457-6.088-.807-8.98-1.324-4.84-.791-9.269-2.542-12.313-6.59a13.455,13.455,0,0,1,.487-17.549c.487-.487,1.081-.883,1.857-1.522,1.522,9.406,8.6,12.541,16.179,15.053,4.109,1.355,8.3,2.5,12.42,3.835,6.179,1.994,11.841,4.794,15.753,10.517,5.616-8.112,14.474-10.137,23-12.755,2.892-.883,5.784-1.75,8.615-2.8,6.484-2.42,11.6-6.195,12.694-13.7,4.216,2.283,6.408,7.808,5.19,12.937C97.7,32,93.352,35.793,87.051,37.361c-3.805.959-7.747,1.522-11.887,2.192a8.234,8.234,0,0,1,1.522,8.736,7.26,7.26,0,0,1-4.231,4.186,7.61,7.61,0,0,1-10.061-3.851,16.486,16.486,0,0,0,2.192-.548,3.531,3.531,0,0,0,2.146-4.323,3.379,3.379,0,0,0-4.338-2.374c-2.313.883-4.566,2.085-6.773,3.135-1.4.654-1.522,1.735-1.233,3.044A15.416,15.416,0,0,0,84.844,44.8a1.72,1.72,0,0,1,.883-1.385c1.842-.472,3.729-.731,5.936-1.126.228,7.032-1.355,13.272-6.529,17.945-8.4,7.61-17.792,8.3-27.594,3.211a41.1,41.1,0,0,1-7.321,11.963,33.88,33.88,0,0,1-7.869-12.024C26.079,72.976,6.551,61.166,7.921,42.308Z" transform="translate(633.211 1761.531)" fill="#fff"/>
    <path id="Контур_43" data-name="Контур 43" d="M45.369,34.3c1.37-5.479,4.779-9.589,8.158-13.7,2.694-3.3,5.753-6.362,6.8-10.654,3.622.822,4.566,3.592,3.044,8.782A24.672,24.672,0,0,0,77.317,5.7a6.925,6.925,0,0,1,4.9,7.367,9.65,9.65,0,0,1-5.951,7.96c-3.851,1.842-7.884,3.257-11.841,4.855-2.511,1-5.053,1.9-7.519,3.044-4.9,2.222-9.132,5.236-11.522,10.517C41.153,30.951,33.056,28.455,25.2,25.533c-3.622-1.355-7.26-2.755-10.761-4.4A9.787,9.787,0,0,1,8.613,14.1,7.26,7.26,0,0,1,13.285,5.64C16.025,11.88,20.8,16,27.379,18.821c-1.035-2.557-1.522-4.87,0-6.971A18.934,18.934,0,0,1,30.225,9.4c.959,4.307,3.485,7.093,5.845,9.969C39.875,23.889,43.817,28.333,45.369,34.3Z" transform="translate(637.603 1758.002)" fill="#fff"/>
    <path id="Контур_44" data-name="Контур 44" d="M35.322,0l7.4,10.654L35.307,21.308l-7.4-10.654Z" transform="translate(647.771 1755.058)" fill="#fff"/>
  </g>
</svg>
