<svg xmlns="http://www.w3.org/2000/svg" width="16.04" height="16.039" viewBox="0 0 16.04 16.039">
  <g id="Page-1" transform="translate(0.003)">
    <g id="_003---Call" data-name="003---Call" transform="translate(-0.003)">
      <path id="Shape" d="M7.639,9.441A6.473,6.473,0,0,1,5.685,5.765a.55.55,0,0,1,.158-.46L7.081,4.067a.553.553,0,0,0,.078-.684L5.187.32a.553.553,0,0,0-.717-.2L1.3,1.609a.55.55,0,0,0-.3.549,15.307,15.307,0,0,0,4.661,9.259,15.3,15.3,0,0,0,9.259,4.661.55.55,0,0,0,.549-.3l1.491-3.167a.553.553,0,0,0-.2-.715L13.7,9.921a.553.553,0,0,0-.684.077l-1.238,1.239a.55.55,0,0,1-.46.158A6.473,6.473,0,0,1,7.639,9.441Z" transform="translate(-0.997 -0.043)" fill="#09355b"/>
      <path id="Shape-2" data-name="Shape" d="M33.254,15.807a.553.553,0,0,1-.553-.553,4.153,4.153,0,0,0-4.148-4.148.553.553,0,0,1,0-1.106,5.26,5.26,0,0,1,5.254,5.254A.553.553,0,0,1,33.254,15.807Z" transform="translate(-20.533 -7.235)" fill="#09355b"/>
      <path id="Shape-3" data-name="Shape" d="M36.02,8.573a.553.553,0,0,1-.553-.553,6.921,6.921,0,0,0-6.913-6.913.553.553,0,0,1,0-1.106,8.028,8.028,0,0,1,8.02,8.02.553.553,0,0,1-.553.553Z" transform="translate(-20.533)" fill="#09355b"/>
    </g>
  </g>
</svg>
